<svg width="148" height="20" viewBox="0 0 148 20" fill="none" xmlns="http://www.w3.org/2000/svg">
<path d="M20.7632 5.84276C19.7608 5.75889 18.7514 5.79902 17.7596 5.96217C17.5729 5.99063 17.3883 6.03052 17.2069 6.08159C16.5031 6.27745 15.8447 6.60021 15.2666 7.03265C14.7383 7.43433 14.3162 7.95015 14.0346 8.53814C13.7408 9.16363 13.5945 9.84372 13.6061 10.5298C13.6061 11.5406 13.9021 12.3331 14.4941 12.9075C15.0861 13.4818 16.1368 13.9133 17.6464 14.2019C18.0904 14.2893 18.4523 14.3682 18.7297 14.445C18.9523 14.4997 19.1649 14.5867 19.3602 14.703C19.4837 14.7766 19.5812 14.8844 19.6399 15.0122C19.689 15.1493 19.7115 15.2938 19.7065 15.4387C19.7062 15.5842 19.6665 15.7271 19.5914 15.8534C19.5163 15.9798 19.4083 16.0852 19.2781 16.1594C18.9515 16.3599 18.5686 16.4589 18.1814 16.443C16.9678 16.443 15.6832 15.9974 14.3276 15.106V19.2003C15.5105 19.6592 16.7725 19.9007 18.0482 19.9125C18.9446 19.9209 19.8376 19.8038 20.6988 19.5649C21.4426 19.363 22.1415 19.032 22.7612 18.5883C23.3243 18.1751 23.7802 17.6423 24.0931 17.0316C24.4227 16.3841 24.5885 15.671 24.5771 14.9503C24.5943 14.486 24.5155 14.023 24.3452 13.5882C24.1749 13.1533 23.9164 12.7552 23.5848 12.417C22.9277 11.7588 21.9294 11.301 20.5901 11.0437C20.1091 10.9414 19.7206 10.8568 19.4246 10.79C19.1923 10.7441 18.968 10.6666 18.7586 10.5597C18.6339 10.501 18.5315 10.4063 18.4656 10.2889C18.4149 10.1714 18.3914 10.0448 18.3968 9.91782C18.3952 9.77668 18.4331 9.63773 18.5065 9.51546C18.58 9.39319 18.6862 9.29207 18.8141 9.22265C19.144 9.04531 19.5173 8.95621 19.8952 8.96462C20.5724 8.98092 21.2005 9.19066 21.8776 9.32927C24.6392 9.91568 26.2221 9.14801 27.4275 8.04981V19.4242H32.2714V10.1183H35.0264V6.23725H32.2803V2.27734H27.4364C27.1544 5.43546 24.7547 6.39505 20.7632 5.84276Z" fill="#4CB087"/>
<path d="M11.4816 4.27302H5.24573V7.51217H11.1352V11.777H5.24573V15.1228H11.4816V19.3876H0V0.00390625H11.4816V4.27302Z" fill="#4CB087"/>
<path d="M46.2575 6.20067H51.1281V19.3897H46.2575V17.9247C45.2215 19.1772 43.8208 19.8027 42.0552 19.8013C41.1064 19.8128 40.1657 19.6333 39.2936 19.2746C38.465 18.93 37.718 18.4272 37.098 17.7968C36.4637 17.1504 35.9681 16.3903 35.6395 15.5599C35.2836 14.6657 35.1059 13.7152 35.1156 12.7579C35.1111 11.8396 35.2843 10.9285 35.6262 10.071C35.9478 9.24842 36.4317 8.49321 37.0514 7.8469C37.6783 7.18729 38.4436 6.66284 39.297 6.30813C40.1503 5.95343 41.0722 5.77653 42.0019 5.78911C42.7981 5.76822 43.5898 5.91115 44.3238 6.20833C45.0578 6.5055 45.7171 6.95004 46.2575 7.51211V6.20067ZM40.1571 12.7579C40.1473 13.5618 40.4661 14.3374 41.0451 14.918C41.3261 15.193 41.6622 15.4106 42.033 15.5577C42.4313 15.7155 42.8586 15.7945 43.2895 15.7902C43.7076 15.7919 44.1219 15.7136 44.5082 15.5599C44.8797 15.4127 45.2164 15.1952 45.4983 14.9201C45.7751 14.6411 46.0003 14.3187 46.1643 13.967C46.3356 13.604 46.4227 13.2097 46.4196 12.8112C46.4249 12.4095 46.3417 12.0112 46.1754 11.6426C46.0137 11.2864 45.7883 10.9602 45.5094 10.6788C45.2274 10.4038 44.8907 10.1863 44.5193 10.039C44.1302 9.88095 43.7119 9.79973 43.2895 9.8002C42.8625 9.79659 42.4391 9.87488 42.0441 10.0305C41.6733 10.1778 41.3374 10.3954 41.0562 10.6702C40.7765 10.9414 40.5508 11.2594 40.3902 11.6085C40.2289 11.9715 40.1495 12.3632 40.1571 12.7579Z" fill="#4CB087"/>
<path d="M58.8161 10.0812V19.3892H53.9722V10.0812H52.3672V6.20015H53.9722V2.24023H58.8161V6.20015H61.5733V10.0812H58.8161Z" fill="#4CB087"/>
<path d="M66.5616 13.5785C66.5616 15.5844 67.5428 16.5873 69.5052 16.5873C69.9815 16.6082 70.4546 16.5043 70.8742 16.2868C71.2938 16.0694 71.6439 15.7465 71.8872 15.3527H76.5713C75.6256 18.3708 73.2636 19.8791 69.4852 19.8777C68.4013 19.8899 67.3234 19.721 66.2996 19.3787C65.3816 19.0698 64.5393 18.5835 63.8244 17.95C63.1347 17.3307 62.5912 16.5767 62.2304 15.7386C61.8454 14.8246 61.6545 13.8458 61.6688 12.8599C61.6541 11.8464 61.8355 10.8392 62.2038 9.88939C62.5372 9.04204 63.0583 8.27441 63.7311 7.63969C64.4165 7.00798 65.2326 6.52191 66.1264 6.2131C67.1435 5.86566 68.2172 5.69595 69.2965 5.71198C70.3636 5.69631 71.4247 5.86608 72.4289 6.2131C73.3167 6.52283 74.1213 7.01895 74.7842 7.66527C75.4455 8.32849 75.9478 9.1225 76.2561 9.99175C76.6089 10.9897 76.7809 12.0385 76.7644 13.0923V13.5785H66.5616ZM72.2335 10.8788C72.0969 10.2646 71.7489 9.71252 71.2456 9.31151C70.7189 8.93265 70.0792 8.72666 69.4212 8.72397C68.7632 8.72128 68.1217 8.92204 67.5916 9.29658C67.1038 9.70616 66.7881 10.2725 66.7036 10.8895H72.2424L72.2335 10.8788Z" fill="#4CB087"/>
<path d="M79.6035 0H87.4177C89.2736 0 90.6833 0.426485 91.6467 1.27945C92.6102 2.13242 93.0919 3.36568 93.0919 4.97921C93.1245 5.8209 92.936 6.65693 92.5436 7.41017C92.1441 8.08599 91.5669 8.64924 90.8697 9.04361C91.543 9.15487 92.1929 9.37019 92.7944 9.6812C93.2917 9.94024 93.7284 10.2944 94.0776 10.7218C94.4078 11.1348 94.6492 11.6067 94.788 12.11C94.9359 12.6472 95.0105 13.2006 95.0099 13.7563C95.0268 14.5864 94.858 15.4103 94.5149 16.1723C94.2001 16.8592 93.7236 17.4665 93.123 17.9465C92.4815 18.4483 91.7383 18.8164 90.9408 19.0276C90.0014 19.278 89.0297 19.3986 88.0549 19.3859H79.6191L79.6035 0ZM84.8492 7.61275H85.8127C87.4525 7.61275 88.2732 6.98653 88.2746 5.73409C88.2761 4.48164 87.4555 3.85613 85.8127 3.85755H84.8492V7.61275ZM84.8492 15.4793H85.9992C87.3193 15.4793 88.265 15.3165 88.8363 14.9909C89.409 14.6647 89.6932 14.138 89.6932 13.4215C89.6932 12.705 89.409 12.1804 88.8363 11.8541C88.2635 11.5279 87.3201 11.3658 85.9992 11.3658H84.8492V15.4793Z" fill="black"/>
<path d="M95.938 12.6764C95.9313 11.7308 96.1412 10.7953 96.553 9.93627C96.9592 9.09346 97.5428 8.34056 98.2667 7.72495C99.0317 7.07915 99.9167 6.57779 100.875 6.24718C101.935 5.87801 103.055 5.69456 104.183 5.70554C105.299 5.69636 106.408 5.87462 107.46 6.23225C108.422 6.55812 109.312 7.05509 110.084 7.69723C110.819 8.31621 111.407 9.07981 111.808 9.93627C112.227 10.8375 112.438 11.8153 112.426 12.8022C112.438 13.7903 112.223 14.7688 111.797 15.6682C111.387 16.5196 110.799 17.281 110.07 17.9051C109.3 18.5528 108.404 19.0464 107.433 19.3573C106.361 19.7082 105.235 19.8827 104.103 19.8734C102.992 19.8837 101.888 19.7091 100.84 19.3573C99.8844 19.0412 99.0055 18.5429 98.2557 17.8923C97.5302 17.2558 96.951 16.4809 96.5552 15.617C96.1358 14.6896 95.9255 13.6875 95.938 12.6764ZM101.044 12.7276C101.038 13.1477 101.125 13.5641 101.299 13.9495C101.46 14.3063 101.685 14.6326 101.965 14.9133C102.247 15.1884 102.584 15.4059 102.955 15.5531C103.738 15.8619 104.615 15.8619 105.397 15.5531C105.769 15.4065 106.106 15.1889 106.387 14.9133C106.666 14.632 106.892 14.3058 107.053 13.9495C107.224 13.5721 107.31 13.1646 107.306 12.7532C107.308 12.3503 107.222 11.9514 107.053 11.5825C106.892 11.2259 106.667 10.8996 106.387 10.6186C106.106 10.3425 105.769 10.1247 105.397 9.97892C105.01 9.82465 104.595 9.74524 104.176 9.74524C103.757 9.74524 103.342 9.82465 102.955 9.97892C102.583 10.1253 102.246 10.3429 101.965 10.6186C101.687 10.8962 101.462 11.218 101.299 11.5697C101.13 11.9339 101.045 12.3289 101.051 12.7276H101.044Z" fill="black"/>
<path d="M113.37 12.6764C113.362 11.7307 113.572 10.7949 113.984 9.93627C114.391 9.09347 114.974 8.34056 115.698 7.72495C116.463 7.0787 117.348 6.57728 118.307 6.24718C119.366 5.878 120.486 5.69454 121.612 5.70555C122.729 5.6962 123.838 5.87446 124.891 6.23225C125.853 6.55863 126.743 7.05555 127.515 7.69723C128.249 8.31743 128.837 9.08072 129.24 9.93627C129.662 10.8375 129.876 11.8161 129.866 12.8044C129.878 13.7927 129.663 14.7714 129.235 15.6704C128.827 16.5221 128.24 17.2837 127.511 17.9073C126.741 18.5549 125.844 19.0486 124.873 19.3595C123.801 19.7103 122.676 19.8848 121.543 19.8755C120.432 19.8859 119.327 19.7113 118.278 19.3595C117.323 19.0428 116.445 18.5446 115.696 17.8945C114.971 17.2579 114.391 16.483 113.996 15.6192C113.572 14.6921 113.358 13.6889 113.37 12.6764ZM118.475 12.7276C118.47 13.1477 118.557 13.5641 118.731 13.9495C118.893 14.3054 119.118 14.6315 119.397 14.9133C119.679 15.1884 120.017 15.406 120.389 15.5531C121.171 15.8619 122.049 15.8619 122.831 15.5531C123.203 15.4065 123.54 15.1889 123.821 14.9133C124.099 14.6315 124.325 14.3053 124.487 13.9495C124.658 13.5721 124.744 13.1646 124.74 12.7532C124.742 12.3503 124.656 11.9514 124.487 11.5825C124.325 11.2264 124.1 10.9002 123.821 10.6186C123.54 10.3425 123.203 10.1247 122.831 9.97892C122.444 9.82465 122.029 9.74524 121.61 9.74524C121.191 9.74524 120.776 9.82465 120.389 9.97892C120.016 10.1252 119.679 10.3429 119.397 10.6186C119.12 10.8973 118.895 11.2189 118.731 11.5697C118.561 11.9337 118.475 12.3288 118.48 12.7276H118.475Z" fill="black"/>
<path d="M135.639 0.0214844V10.9544L140.725 6.19912H147.365L140.492 12.2829L147.773 19.3775H140.967L135.639 14.0144V19.386H130.802V0.0214844H135.639Z" fill="black"/>
</svg>
